<?xml version="1.0" encoding="UTF-8"?><svg id="_3_Layer" xmlns="http://www.w3.org/2000/svg" xmlns:xlink="http://www.w3.org/1999/xlink" viewBox="0 0 1024 1024"><defs><style>.cls-1{fill:url(#radial-gradient-7);}.cls-2{fill:url(#radial-gradient-6);}.cls-3{fill:url(#radial-gradient-5);}.cls-4{fill:url(#radial-gradient-4);}.cls-5{fill:url(#radial-gradient-9);}.cls-6{fill:url(#radial-gradient-8);}.cls-7{fill:url(#radial-gradient-3);}.cls-8{fill:url(#radial-gradient-2);}.cls-9{fill:url(#radial-gradient);}.cls-10{fill:url(#linear-gradient);}.cls-11{fill:url(#radial-gradient-16);}.cls-12{fill:url(#radial-gradient-12);}.cls-13{fill:url(#radial-gradient-14);}.cls-14{fill:url(#radial-gradient-13);}.cls-15{fill:url(#radial-gradient-10);}.cls-16{fill:url(#radial-gradient-17);}.cls-17{fill:url(#radial-gradient-19);}.cls-18{fill:url(#radial-gradient-11);}.cls-19{fill:url(#radial-gradient-18);}.cls-20{fill:url(#radial-gradient-15);}</style><linearGradient id="linear-gradient" x1="2038.61" y1="-635.5" x2="1579.89" y2="301.48" gradientTransform="translate(-715.47 2205.84) rotate(-45)" gradientUnits="userSpaceOnUse"><stop offset="0" stop-color="#738566"/><stop offset="1" stop-color="#163300"/></linearGradient><radialGradient id="radial-gradient" cx="2387.74" cy="-729.24" fx="2387.74" fy="-729.24" r="1029.68" gradientTransform="translate(-715.47 2205.84) rotate(-45)" gradientUnits="userSpaceOnUse"><stop offset="0" stop-color="#ffe026"/><stop offset="1" stop-color="#ff7503"/></radialGradient><radialGradient id="radial-gradient-2" cx="2387.78" cy="-729.24" fx="2387.78" fy="-729.24" r="1029.78" gradientTransform="translate(-1682.57 1263.61) rotate(-9.99)" xlink:href="#radial-gradient"/><radialGradient id="radial-gradient-3" cx="2387.77" cy="-729.24" fx="2387.77" fy="-729.24" r="1029.75" xlink:href="#radial-gradient"/><radialGradient id="radial-gradient-4" cx="2387.79" cy="-729.24" fx="2387.79" fy="-729.24" r="1029.82" xlink:href="#radial-gradient"/><radialGradient id="radial-gradient-5" cx="2387.79" cy="-729.23" fx="2387.79" fy="-729.23" r="1029.77" xlink:href="#radial-gradient"/><radialGradient id="radial-gradient-6" cx="2387.79" cy="-729.25" fx="2387.79" fy="-729.25" r="1029.85" xlink:href="#radial-gradient"/><radialGradient id="radial-gradient-7" cx="2387.79" cy="-729.23" fx="2387.79" fy="-729.23" r="1029.77" xlink:href="#radial-gradient"/><radialGradient id="radial-gradient-8" cx="2387.79" cy="-729.23" fx="2387.79" fy="-729.23" r="1029.76" xlink:href="#radial-gradient"/><radialGradient id="radial-gradient-9" cx="2387.79" cy="-729.24" fx="2387.79" fy="-729.24" r="1029.78" xlink:href="#radial-gradient"/><radialGradient id="radial-gradient-10" cx="2387.78" cy="-729.23" fx="2387.78" fy="-729.23" r="1029.76" xlink:href="#radial-gradient"/><radialGradient id="radial-gradient-11" cx="2387.79" cy="-729.19" fx="2387.79" fy="-729.19" r="1029.71" xlink:href="#radial-gradient"/><radialGradient id="radial-gradient-12" cx="2387.79" cy="-729.23" fx="2387.79" fy="-729.23" r="1029.77" xlink:href="#radial-gradient"/><radialGradient id="radial-gradient-13" cx="2387.78" cy="-729.27" fx="2387.78" fy="-729.27" r="1029.86" xlink:href="#radial-gradient"/><radialGradient id="radial-gradient-14" cx="2387.79" cy="-729.23" fx="2387.79" fy="-729.23" r="1029.79" xlink:href="#radial-gradient"/><radialGradient id="radial-gradient-15" cx="2387.79" cy="-729.28" fx="2387.79" fy="-729.28" r="1029.86" xlink:href="#radial-gradient"/><radialGradient id="radial-gradient-16" cx="2387.79" cy="-729.22" fx="2387.79" fy="-729.22" r="1029.76" xlink:href="#radial-gradient"/><radialGradient id="radial-gradient-17" cx="2387.78" cy="-729.22" fx="2387.78" fy="-729.22" r="1029.77" xlink:href="#radial-gradient"/><radialGradient id="radial-gradient-18" cx="2387.76" cy="-729.24" fx="2387.76" fy="-729.24" r="1029.79" xlink:href="#radial-gradient"/><radialGradient id="radial-gradient-19" cx="2387.73" cy="-729.23" fx="2387.73" fy="-729.23" r="1029.77" xlink:href="#radial-gradient"/></defs><path class="cls-10" d="M660.24,707.64c-96.22,72.96-233.91,65.58-321.7-22.21-87.78-87.78-95.15-225.47-22.21-321.7L126.95,174.35c-176.58,201.2-168.99,507.66,23.02,699.66,192.01,192.01,498.46,199.6,699.67,23.02l-189.4-189.4Z"/><polygon class="cls-9" points="326.61 350.1 350.49 326.23 161.91 137.65 138.02 161.52 326.61 350.1"/><rect class="cls-8" x="277.97" y="68.08" width="33.76" height="266.69" transform="translate(-62.21 205.59) rotate(-35.01)"/><polygon class="cls-7" points="393.11 296.39 423.71 282.11 311 40.42 280.41 54.68 393.11 296.39"/><polygon class="cls-4" points="432.33 279 464.94 270.25 395.91 12.65 363.31 21.37 432.33 279"/><polygon class="cls-3" points="473.98 268.66 507.61 265.71 484.35 .04 450.73 2.98 473.98 268.66"/><polygon class="cls-2" points="516.79 265.71 550.41 268.66 573.64 2.98 540.02 .02 516.79 265.71"/><polygon class="cls-1" points="559.45 270.25 592.06 278.98 661.06 21.37 628.48 12.63 559.45 270.25"/><polygon class="cls-6" points="600.69 282.13 631.28 296.39 743.98 54.67 713.4 40.42 600.69 282.13"/><polygon class="cls-5" points="639.22 300.98 666.88 320.34 819.82 101.86 792.2 82.52 639.22 300.98"/><polygon class="cls-15" points="673.9 326.23 697.77 350.11 886.34 161.51 862.5 137.67 673.9 326.23"/><polygon class="cls-18" points="703.68 357.14 723.04 384.81 941.48 231.8 922.14 204.18 703.68 357.14"/><polygon class="cls-12" points="727.62 392.75 741.89 423.33 983.59 310.59 969.33 280.04 727.62 392.75"/><polygon class="cls-14" points="745.02 431.97 753.76 464.57 1011.38 395.51 1002.64 362.94 745.02 431.97"/><polygon class="cls-13" points="755.37 473.61 758.3 507.23 1023.98 483.97 1021.06 450.37 755.37 473.61"/><polygon class="cls-20" points="758.3 516.43 755.37 550.04 1021.06 573.27 1024 539.66 758.3 516.43"/><polygon class="cls-11" points="753.78 559.09 745.04 591.69 1002.65 660.69 1011.38 628.11 753.78 559.09"/><polygon class="cls-16" points="741.9 600.32 727.63 630.9 969.36 743.59 983.59 713.04 741.9 600.32"/><polygon class="cls-19" points="723.04 638.85 703.68 666.51 922.17 819.46 941.48 791.85 723.04 638.85"/><polygon class="cls-17" points="697.77 673.54 673.9 697.43 862.53 885.96 886.32 862.14 697.77 673.54"/></svg>