<?xml version="1.0" encoding="UTF-8"?><svg xmlns="http://www.w3.org/2000/svg" xmlns:xlink="http://www.w3.org/1999/xlink" viewBox="0 0 1024 1024"><defs><style>.cls-1{fill:url(#radial-gradient-7);}.cls-2{fill:url(#radial-gradient-6);}.cls-3{fill:url(#radial-gradient-5);}.cls-4{fill:url(#radial-gradient-4);}.cls-5{fill:url(#radial-gradient-9);}.cls-6{fill:url(#radial-gradient-8);}.cls-7{fill:url(#radial-gradient-3);}.cls-8{fill:url(#radial-gradient-2);}.cls-9{fill:url(#linear-gradient-2);}.cls-10{fill:url(#radial-gradient);}.cls-11{fill:url(#linear-gradient);}.cls-12{fill:url(#radial-gradient-16);}.cls-13{fill:url(#radial-gradient-12);}.cls-14{fill:url(#radial-gradient-14);}.cls-15{fill:url(#radial-gradient-13);}.cls-16{fill:url(#radial-gradient-10);}.cls-17{fill:url(#radial-gradient-17);}.cls-18{fill:url(#radial-gradient-19);}.cls-19{fill:url(#radial-gradient-11);}.cls-20{fill:url(#radial-gradient-18);}.cls-21{fill:url(#radial-gradient-15);}</style><linearGradient id="linear-gradient" x1="512" y1="0" x2="512" y2="1024" gradientUnits="userSpaceOnUse"><stop offset="0" stop-color="#f7ffd8"/><stop offset="1" stop-color="#ffe9b5"/></linearGradient><linearGradient id="linear-gradient-2" x1="2044.03" y1="-574.32" x2="1677.11" y2="175.16" gradientTransform="translate(-715.47 2205.84) rotate(-45)" gradientUnits="userSpaceOnUse"><stop offset="0" stop-color="#738566"/><stop offset="1" stop-color="#163300"/></linearGradient><radialGradient id="radial-gradient" cx="2323.3" cy="-649.3" fx="2323.3" fy="-649.3" r="823.62" gradientTransform="translate(-715.47 2205.84) rotate(-45)" gradientUnits="userSpaceOnUse"><stop offset="0" stop-color="#ffe026"/><stop offset="1" stop-color="#ff7503"/></radialGradient><radialGradient id="radial-gradient-2" cx="2323.33" cy="-649.3" fx="2323.33" fy="-649.3" r="823.7" gradientTransform="translate(-1639.05 1249.93) rotate(-9.99)" xlink:href="#radial-gradient"/><radialGradient id="radial-gradient-3" cx="2323.32" cy="-649.3" fx="2323.32" fy="-649.3" r="823.68" xlink:href="#radial-gradient"/><radialGradient id="radial-gradient-4" cx="2323.33" cy="-649.3" fx="2323.33" fy="-649.3" r="823.73" xlink:href="#radial-gradient"/><radialGradient id="radial-gradient-5" cx="2323.34" cy="-649.29" fx="2323.34" fy="-649.29" r="823.69" xlink:href="#radial-gradient"/><radialGradient id="radial-gradient-6" cx="2323.33" cy="-649.31" fx="2323.33" fy="-649.31" r="823.76" xlink:href="#radial-gradient"/><radialGradient id="radial-gradient-7" cx="2323.34" cy="-649.29" fx="2323.34" fy="-649.29" r="823.7" xlink:href="#radial-gradient"/><radialGradient id="radial-gradient-8" cx="2323.34" cy="-649.29" fx="2323.34" fy="-649.29" r="823.68" xlink:href="#radial-gradient"/><radialGradient id="radial-gradient-9" cx="2323.33" cy="-649.3" fx="2323.33" fy="-649.3" r="823.7" xlink:href="#radial-gradient"/><radialGradient id="radial-gradient-10" cx="2323.33" cy="-649.29" fx="2323.33" fy="-649.29" r="823.69" xlink:href="#radial-gradient"/><radialGradient id="radial-gradient-11" cx="2323.33" cy="-649.26" fx="2323.33" fy="-649.26" r="823.64" xlink:href="#radial-gradient"/><radialGradient id="radial-gradient-12" cx="2323.33" cy="-649.29" fx="2323.33" fy="-649.29" r="823.7" xlink:href="#radial-gradient"/><radialGradient id="radial-gradient-13" cx="2323.33" cy="-649.33" fx="2323.33" fy="-649.33" r="823.77" xlink:href="#radial-gradient"/><radialGradient id="radial-gradient-14" cx="2323.34" cy="-649.29" fx="2323.34" fy="-649.29" r="823.71" xlink:href="#radial-gradient"/><radialGradient id="radial-gradient-15" cx="2323.33" cy="-649.33" fx="2323.33" fy="-649.33" r="823.76" gradientTransform="translate(-980.2 -840.44) rotate(40.01)" xlink:href="#radial-gradient"/><radialGradient id="radial-gradient-16" cx="2323.33" cy="-649.28" fx="2323.33" fy="-649.28" r="823.69" xlink:href="#radial-gradient"/><radialGradient id="radial-gradient-17" cx="2323.33" cy="-649.29" fx="2323.33" fy="-649.29" r="823.7" xlink:href="#radial-gradient"/><radialGradient id="radial-gradient-18" cx="2323.31" cy="-649.3" fx="2323.31" fy="-649.3" r="823.71" xlink:href="#radial-gradient"/><radialGradient id="radial-gradient-19" cx="2323.29" cy="-649.29" fx="2323.29" fy="-649.29" r="823.7" xlink:href="#radial-gradient"/></defs><g id="Background"><rect class="cls-11" width="1024" height="1024"/></g><g id="_1_Layer"><path class="cls-9" d="M630.57,668.49c-76.97,58.36-187.1,52.46-257.32-17.77-70.21-70.21-76.11-180.35-17.76-257.32l-151.48-151.48c-141.24,160.94-135.17,406.06,18.41,559.65,153.58,153.58,398.71,159.66,559.65,18.42l-151.5-151.5Z"/></g><g id="_2_Layer"><polygon class="cls-10" points="363.71 382.5 382.81 363.4 231.97 212.57 212.86 231.66 363.71 382.5"/><rect class="cls-8" x="324.8" y="156.92" width="27.01" height="213.32" transform="translate(-90 241.76) rotate(-35.01)"/><polygon class="cls-7" points="416.91 339.54 441.37 328.12 351.22 134.79 326.75 146.2 416.91 339.54"/><polygon class="cls-4" points="448.27 325.62 474.36 318.63 419.14 112.58 393.06 119.56 448.27 325.62"/><polygon class="cls-3" points="481.59 317.35 508.49 315 489.88 102.49 462.99 104.84 481.59 317.35"/><polygon class="cls-2" points="515.83 315 542.72 317.35 561.31 104.84 534.41 102.47 515.83 315"/><polygon class="cls-1" points="549.96 318.63 576.03 325.62 631.23 119.56 605.17 112.56 549.96 318.63"/><polygon class="cls-6" points="582.94 328.13 607.41 339.54 697.55 146.19 673.09 134.79 582.94 328.13"/><polygon class="cls-5" points="613.76 343.21 635.88 358.7 758.22 183.94 736.13 168.46 613.76 343.21"/><polygon class="cls-16" points="641.5 363.41 660.6 382.51 811.43 231.65 792.36 212.58 641.5 363.41"/></g><g id="_3_Layer"><polygon class="cls-19" points="665.32 388.13 680.81 410.26 855.53 287.87 840.06 265.78 665.32 388.13"/><polygon class="cls-13" points="684.47 416.61 695.88 441.08 889.22 350.9 877.81 326.46 684.47 416.61"/><polygon class="cls-15" points="698.39 447.99 705.38 474.06 911.44 418.82 904.46 392.77 698.39 447.99"/><polygon class="cls-14" points="706.67 481.29 709.01 508.19 921.53 489.58 919.19 462.71 706.67 481.29"/><rect class="cls-21" x="800.61" y="431.61" width="26.99" height="213.33" transform="translate(207.05 1302.47) rotate(-85.01)"/><polygon class="cls-12" points="705.39 549.67 698.41 575.74 904.47 630.93 911.44 604.88 705.39 549.67"/><polygon class="cls-17" points="695.89 582.65 684.47 607.11 877.83 697.25 889.22 672.81 695.89 582.65"/><polygon class="cls-20" points="680.81 613.47 665.32 635.59 840.08 757.93 855.53 735.85 680.81 613.47"/><polygon class="cls-18" points="660.6 641.21 641.5 660.32 792.38 811.13 811.41 792.07 660.6 641.21"/></g></svg>