<?xml version="1.0" encoding="UTF-8"?><svg id="Layer_1" xmlns="http://www.w3.org/2000/svg" xmlns:xlink="http://www.w3.org/1999/xlink" viewBox="0 0 608.26 117.08"><defs><style>.cls-1{fill:url(#linear-gradient-8);}.cls-2{fill:url(#linear-gradient-7);}.cls-3{fill:url(#linear-gradient-5);}.cls-4{fill:url(#linear-gradient-6);}.cls-5{fill:url(#linear-gradient-4);}.cls-6{fill:url(#linear-gradient-3);}.cls-7{fill:url(#linear-gradient-2);}.cls-8{fill:url(#linear-gradient);}</style><linearGradient id="linear-gradient" x1="52.66" y1="1.42" x2="52.66" y2="115.66" gradientUnits="userSpaceOnUse"><stop offset="0" stop-color="#738566"/><stop offset="1" stop-color="#163300"/></linearGradient><linearGradient id="linear-gradient-2" x1="138.16" y1="33.97" x2="138.16" y2="113.32" xlink:href="#linear-gradient"/><linearGradient id="linear-gradient-3" x1="199.15" y1="33.03" x2="199.15" xlink:href="#linear-gradient"/><linearGradient id="linear-gradient-4" x1="278.45" y1="3.77" x2="278.45" xlink:href="#linear-gradient"/><linearGradient id="linear-gradient-5" x1="340.47" y1="3.77" x2="340.47" y2="113.32" xlink:href="#linear-gradient"/><linearGradient id="linear-gradient-6" x1="398.94" y1="3.77" x2="398.94" y2="113.32" xlink:href="#linear-gradient"/><linearGradient id="linear-gradient-7" x1="490.06" y1="35.38" x2="490.06" xlink:href="#linear-gradient"/><linearGradient id="linear-gradient-8" x1="568.2" y1="35.38" x2="568.2" y2="113.32" xlink:href="#linear-gradient"/></defs><path class="cls-8" d="M0,58.07C0,25.99,22.69,1.42,55.71,1.42c26.92,0,44.13,15.49,49.45,33.18l-19.09,7.2c-3.91-11.74-12.67-23.01-30.67-23.01-20.66,0-33.96,14.56-33.96,39.13s12.99,40.22,33.96,40.22c17.84,0,26.92-10.33,31.3-23.47l18.62,7.35c-6.88,19.72-23.16,33.65-49.92,33.65C21.13,115.66,0,90.78,0,58.07Z"/><path class="cls-7" d="M112.57,35.38h17.53c0,7.66-3.75,17.22-7.35,23.01h9.07c3.45-14.87,9.86-24.41,26.13-24.41,2.82,0,4.22.15,5.79.47v19.4c-2.98-.31-5.63-.47-8.45-.47-16.59,0-23.63,7.82-23.63,28.01v31.93h-19.09V35.38Z"/><path class="cls-6" d="M161.9,74.35c0-24.88,16.12-41.32,37.88-41.32,24.88,0,38.65,20.19,36.15,46.01h-54.93c.62,15.81,9.23,21.59,19.25,21.59,11.11,0,16.28-7.51,19.09-14.08l17.06,6.42c-4.85,12.21-15.81,22.69-36.3,22.69-23.01,0-38.19-15.49-38.19-41.31ZM199.78,47.28c-9.39,0-16.75,6.26-18.16,17.68h35.37c-.47-11.42-7.51-17.68-17.21-17.68Z"/><path class="cls-5" d="M239.88,74.35c0-25.04,13.3-41.32,31.93-41.32,15.81,0,22.22,10.33,25.66,18.62h8.92c-4.06-6.1-8.3-13.77-8.3-31.45V3.77h18.94v109.55h-17.22c0-5.32,3.76-11.9,6.89-16.28h-8.92c-3.6,7.52-9.39,18.62-25.98,18.62-18.62,0-31.93-16.27-31.93-41.31ZM298.88,74.19c0-17.53-8.14-26.13-19.72-26.13s-19.41,6.73-19.41,26.13,8.3,26.45,19.41,26.45,19.72-8.76,19.72-26.45Z"/><path class="cls-3" d="M330.38,3.77h20.19v19.57h-20.19V3.77ZM331.16,98.45v-63.07h19.09v77.93h-19.09v-14.86Z"/><path class="cls-4" d="M391.11,3.77h51.17v109.55h-19.09V19.26h-25.51c-5.01,0-7.2,2.34-7.2,7.35v8.77h18.94v14.86h-18.94v63.07h-18.94v-63.07h-15.96v-14.86h15.96v-11.11c0-12.99,6.73-20.5,19.56-20.5Z"/><path class="cls-2" d="M455.48,87.34v-51.96h18.94v47.41c0,12.05,5.32,16.75,13.62,16.75,14.71,0,17.53-15.02,17.53-27.55v-36.62h19.09v77.93h-17.84c.16-5.32,3.45-12.05,7.36-18h-8.92c-3.6,10.65-11.27,20.34-24.73,20.34-15.97,0-25.04-11.26-25.04-28.32Z"/><path class="cls-1" d="M556.78,73.09l-27.23-37.71h22.85l5.95,8.76c4.54,6.73,5.47,14.56,5.47,22.38h7.51c0-7.67,2.19-13.77,8.14-22.38l5.95-8.76h20.97l-27.54,37.87,29.42,40.06h-23.16l-7.36-10.8c-4.54-6.73-5.63-14.4-5.63-22.38h-7.51c-.16,7.82-2.66,13.77-8.3,22.06l-7.51,11.11h-20.66l28.64-40.22Z"/></svg>